<?xml version="1.0" encoding="UTF-8" standalone="no"?>
<svg width="84px" height="60px" viewBox="0 0 84 60" version="1.1" xmlns="http://www.w3.org/2000/svg" xmlns:xlink="http://www.w3.org/1999/xlink" xmlns:sketch="http://www.bohemiancoding.com/sketch/ns">
    <!-- Generator: Sketch 3.3.3 (12081) - http://www.bohemiancoding.com/sketch -->
    <title>Shape</title>
    <desc>Created with Sketch.</desc>
    <defs></defs>
    <g id="Page-1" stroke="none" stroke-width="1" fill="none" fill-rule="evenodd" sketch:type="MSPage">
        <path d="M8.66830479,18.4946911 C9.7119863,19.1762121 12.8577226,21.2008996 18.1060788,24.5671845 C23.3544349,27.9334693 27.3748973,30.5256551 30.1680308,32.3432188 C30.474863,32.542497 31.1269521,32.975574 32.1242979,33.642973 C33.1216438,34.3108949 33.9505993,34.8511951 34.6100342,35.2628276 C35.2700342,35.67446 36.067911,36.1363042 37.0042295,36.6473142 C37.9405479,37.1583242 38.8231849,37.5422355 39.6515753,37.7969559 C40.4805308,38.0532455 41.2478938,38.1803442 41.9536644,38.1803442 L42,38.1803442 L42.0463356,38.1803442 C42.7521062,38.1803442 43.5194692,38.0532455 44.3484247,37.7969559 C45.1768151,37.5422355 46.0600171,37.1578011 46.9957705,36.6473142 C47.931524,36.1357812 48.7294007,35.67446 49.3894007,35.2628276 C50.0494007,34.8511951 50.8777911,34.3108949 51.875137,33.642973 C52.8724829,32.975051 53.525137,32.542497 53.8319692,32.3432188 C56.6550514,30.5251321 63.837637,25.9087818 75.3774658,18.4936451 C77.6179623,17.0453476 79.4894692,15.2978712 80.9936815,13.2522621 C82.4984589,11.2076991 83.25,9.06271248 83.25,6.81834824 C83.25,4.94325017 82.5204966,3.33804069 81.0626199,2.00271981 C79.6047432,0.667398923 77.8778938,0 75.8837671,0 L8.11566781,0 C5.75255137,0 3.93416096,0.73853235 2.66049658,2.21559705 C1.38683219,3.69318479 0.75,5.5400387 0.75,7.75563576 C0.75,9.54547832 1.59421233,11.4849103 3.28207192,13.5728856 C4.96993151,15.6608609 6.76571918,17.3016371 8.66830479,18.4946911 Z M78.6458219,23.05403 C68.5796918,29.3603222 60.9365753,34.2612061 55.719863,37.7556358 C53.970411,38.9486898 52.5509589,39.8797008 51.4609418,40.5465767 C50.3714897,41.2144987 48.921524,41.8960197 47.1104795,42.5921858 C45.3,43.2883519 43.6121404,43.6361734 42.0469007,43.6361734 L42,43.6361734 L41.9536644,43.6361734 C40.3884247,43.6361734 38.7,43.2883519 36.8895205,42.5921858 C35.0790411,41.8960197 33.6285103,41.2144987 32.5390582,40.5465767 C31.4496062,39.8797008 30.0301541,38.9486898 28.2807021,37.7556358 C24.1370548,34.9432502 16.5103253,30.0423662 5.39994863,23.05403 C3.65049658,21.9749987 2.1005137,20.7385324 0.75,19.3467232 L0.75,53.1811287 C0.75,55.0567498 1.4710274,56.6614363 2.91364726,57.9967572 C4.35626712,59.3326011 6.09046233,60 8.11623288,60 L75.8843322,60 C77.9095377,60 79.6437329,59.3326011 81.0863527,57.9967572 C82.5295377,56.6609132 83.25,55.0567498 83.25,53.1811287 L83.25,19.3467232 C81.93,20.7097652 80.395839,21.9462315 78.6458219,23.05403 Z" id="Shape" fill="#FF5476" sketch:type="MSShapeGroup"></path>
    </g>
</svg>