<?xml version="1.0" encoding="UTF-8" standalone="no"?>
<svg width="61px" height="60px" viewBox="0 0 61 60" version="1.1" xmlns="http://www.w3.org/2000/svg" xmlns:xlink="http://www.w3.org/1999/xlink" xmlns:sketch="http://www.bohemiancoding.com/sketch/ns">
    <!-- Generator: Sketch 3.3.3 (12081) - http://www.bohemiancoding.com/sketch -->
    <title>Shape</title>
    <desc>Created with Sketch.</desc>
    <defs></defs>
    <g id="Page-1" stroke="none" stroke-width="1" fill="none" fill-rule="evenodd" sketch:type="MSPage">
        <path d="M36.5,44 C32.5,44 28.5,40 24.5,36 C20.5,32 16.5,28 16.5,24 C16.5,20 20.5,20 24.5,16 C28.5,12 16.5,0 12.5,0 C8.5,0 0.5,12 0.5,12 C0.5,20 8.72,36.22 16.5,44 C24.276,51.78 40.5,60 48.5,60 C48.5,60 60.5,52 60.5,48 C60.5,44 48.5,32 44.5,36 C40.5,40 40.5,44 36.5,44 Z" id="Shape" fill="#FF5476" sketch:type="MSShapeGroup"></path>
    </g>
</svg>